<svg width="20" height="19" viewBox="0 0 20 19" fill="none" xmlns="http://www.w3.org/2000/svg">
<path d="M15.5417 15.0417L4.45833 15.0417L4.45833 3.95833L10 3.95833V2.375L4.45833 2.375C4.03841 2.375 3.63568 2.54181 3.33875 2.83875C3.04181 3.13568 2.875 3.53841 2.875 3.95833L2.875 15.0417C2.875 15.4616 3.04181 15.8643 3.33875 16.1613C3.63568 16.4582 4.03841 16.625 4.45833 16.625L15.5417 16.625C16.4125 16.625 17.125 15.9125 17.125 15.0417L17.125 9.5H15.5417L15.5417 15.0417ZM11.5833 2.375V3.95833L14.4254 3.95833L6.64333 11.7404L7.75958 12.8567L15.5417 5.07458L15.5417 7.91667L17.125 7.91667L17.125 2.375L11.5833 2.375Z" fill="#BDC1CA"/>
</svg>
